<?xml version="1.0" encoding="UTF-8" standalone="no"?>
<!DOCTYPE svg PUBLIC "-//W3C//DTD SVG 1.1//EN"
 "http://www.w3.org/Graphics/SVG/1.1/DTD/svg11.dtd">
<!-- Generated by graphviz version 2.38.0 (20140413.2041)
 -->
<!-- Title: controllers_diagram Pages: 1 -->
<svg width="400pt" height="628pt"
 viewBox="0.00 0.00 399.88 627.51" xmlns="http://www.w3.org/2000/svg" xmlns:xlink="http://www.w3.org/1999/xlink">
<g id="graph0" class="graph" transform="scale(1 1) rotate(0) translate(199.311 311.5)">
<title>controllers_diagram</title>
<polygon fill="white" stroke="none" points="-199.311,316.007 -199.311,-311.5 200.565,-311.5 200.565,316.007 -199.311,316.007"/>
<!-- _diagram_info -->
<g id="node1" class="node"><title>_diagram_info</title>
<text text-anchor="start" x="-186.688" y="-293.1" font-family="Times,serif" font-size="13.00">Controllers diagram</text>
<text text-anchor="start" x="-186.688" y="-280.1" font-family="Times,serif" font-size="13.00">Date: Jun 16 2014 &#45; 13:22</text>
<text text-anchor="start" x="-186.688" y="-267.1" font-family="Times,serif" font-size="13.00">Migration version: 20140616072417</text>
<text text-anchor="start" x="-186.688" y="-254.1" font-family="Times,serif" font-size="13.00">Generated by RailRoady 1.1.1</text>
<text text-anchor="start" x="-186.688" y="-241.1" font-family="Times,serif" font-size="13.00">http://railroady.prestonlee.com</text>
</g>
<!-- ApplicationController -->
<g id="node2" class="node"><title>ApplicationController</title>
<path fill="none" stroke="black" d="M-73.6736,113.808C-73.6736,113.808 41.968,113.808 41.968,113.808 47.968,113.808 53.968,107.808 53.968,101.808 53.968,101.808 53.968,33.8078 53.968,33.8078 53.968,27.8078 47.968,21.8078 41.968,21.8078 41.968,21.8078 -73.6736,21.8078 -73.6736,21.8078 -79.6736,21.8078 -85.6736,27.8078 -85.6736,33.8078 -85.6736,33.8078 -85.6736,101.808 -85.6736,101.808 -85.6736,107.808 -79.6736,113.808 -73.6736,113.808"/>
<text text-anchor="middle" x="-15.8528" y="37.0078" font-family="Times,serif" font-size="14.00">ApplicationController</text>
<polyline fill="none" stroke="black" points="-85.6736,43.8078 53.968,43.8078 "/>
<polyline fill="none" stroke="black" points="-85.6736,67.8078 53.968,67.8078 "/>
<polyline fill="none" stroke="black" points="-85.6736,91.8078 53.968,91.8078 "/>
<text text-anchor="start" x="-77.6736" y="107.008" font-family="Times,serif" font-size="14.00">_layout</text>
</g>
<!-- ResultsController -->
<g id="node3" class="node"><title>ResultsController</title>
<path fill="none" stroke="black" d="M89.8188,309.122C89.8188,309.122 180.591,309.122 180.591,309.122 186.591,309.122 192.591,303.122 192.591,297.122 192.591,297.122 192.591,203.122 192.591,203.122 192.591,197.122 186.591,191.122 180.591,191.122 180.591,191.122 89.8188,191.122 89.8188,191.122 83.8188,191.122 77.8188,197.122 77.8188,203.122 77.8188,203.122 77.8188,297.122 77.8188,297.122 77.8188,303.122 83.8188,309.122 89.8188,309.122"/>
<text text-anchor="middle" x="135.205" y="206.322" font-family="Times,serif" font-size="14.00">ResultsController</text>
<polyline fill="none" stroke="black" points="77.8188,213.122 192.591,213.122 "/>
<text text-anchor="start" x="85.8188" y="228.322" font-family="Times,serif" font-size="14.00">create</text>
<text text-anchor="start" x="85.8188" y="242.322" font-family="Times,serif" font-size="14.00">new</text>
<polyline fill="none" stroke="black" points="77.8188,249.122 192.591,249.122 "/>
<polyline fill="none" stroke="black" points="77.8188,273.122 192.591,273.122 "/>
<text text-anchor="start" x="85.8188" y="288.322" font-family="Times,serif" font-size="14.00">_layout</text>
<text text-anchor="start" x="85.8188" y="302.322" font-family="Times,serif" font-size="14.00">result_params</text>
</g>
<!-- ApplicationController&#45;&gt;ResultsController -->
<g id="edge1" class="edge"><title>ApplicationController&#45;&gt;ResultsController</title>
<path fill="none" stroke="black" d="M22.2655,113.813C41.6686,137.231 65.4786,165.968 86.2261,191.009"/>
</g>
<!-- TestpeopleController -->
<g id="node4" class="node"><title>TestpeopleController</title>
<path fill="none" stroke="black" d="M-183.311,311.507C-183.311,311.507 -73.3223,311.507 -73.3223,311.507 -67.3223,311.507 -61.3223,305.507 -61.3223,299.507 -61.3223,299.507 -61.3223,219.507 -61.3223,219.507 -61.3223,213.507 -67.3223,207.507 -73.3223,207.507 -73.3223,207.507 -183.311,207.507 -183.311,207.507 -189.311,207.507 -195.311,213.507 -195.311,219.507 -195.311,219.507 -195.311,299.507 -195.311,299.507 -195.311,305.507 -189.311,311.507 -183.311,311.507"/>
<text text-anchor="middle" x="-128.316" y="222.707" font-family="Times,serif" font-size="14.00">TestpeopleController</text>
<polyline fill="none" stroke="black" points="-195.311,229.507 -61.3223,229.507 "/>
<text text-anchor="start" x="-187.311" y="244.707" font-family="Times,serif" font-size="14.00">create</text>
<polyline fill="none" stroke="black" points="-195.311,251.507 -61.3223,251.507 "/>
<polyline fill="none" stroke="black" points="-195.311,275.507 -61.3223,275.507 "/>
<text text-anchor="start" x="-187.311" y="290.707" font-family="Times,serif" font-size="14.00">_layout</text>
<text text-anchor="start" x="-187.311" y="304.707" font-family="Times,serif" font-size="14.00">testperson_params</text>
</g>
<!-- ApplicationController&#45;&gt;TestpeopleController -->
<g id="edge2" class="edge"><title>ApplicationController&#45;&gt;TestpeopleController</title>
<path fill="none" stroke="black" d="M-43.0771,114.213C-59.5891,142.358 -80.6962,178.336 -97.7755,207.449"/>
</g>
<!-- UsersController -->
<g id="node5" class="node"><title>UsersController</title>
<path fill="none" stroke="black" d="M-169.549,-80.2259C-169.549,-80.2259 -88.1213,-80.2259 -88.1213,-80.2259 -82.1213,-80.2259 -76.1213,-86.2259 -76.1213,-92.2259 -76.1213,-92.2259 -76.1213,-158.226 -76.1213,-158.226 -76.1213,-164.226 -82.1213,-170.226 -88.1213,-170.226 -88.1213,-170.226 -169.549,-170.226 -169.549,-170.226 -175.549,-170.226 -181.549,-164.226 -181.549,-158.226 -181.549,-158.226 -181.549,-92.2259 -181.549,-92.2259 -181.549,-86.2259 -175.549,-80.2259 -169.549,-80.2259"/>
<text text-anchor="middle" x="-128.835" y="-155.026" font-family="Times,serif" font-size="14.00">UsersController</text>
<polyline fill="none" stroke="black" points="-181.549,-148.226 -76.1213,-148.226 "/>
<text text-anchor="start" x="-173.549" y="-133.026" font-family="Times,serif" font-size="14.00">show</text>
<polyline fill="none" stroke="black" points="-181.549,-126.226 -76.1213,-126.226 "/>
<polyline fill="none" stroke="black" points="-181.549,-102.226 -76.1213,-102.226 "/>
<text text-anchor="start" x="-173.549" y="-87.0259" font-family="Times,serif" font-size="14.00">_layout</text>
</g>
<!-- ApplicationController&#45;&gt;UsersController -->
<g id="edge3" class="edge"><title>ApplicationController&#45;&gt;UsersController</title>
<path fill="none" stroke="black" d="M-42.9149,21.5714C-60.933,-9.213 -84.4928,-49.4656 -102.384,-80.0328"/>
</g>
<!-- UsertestsController -->
<g id="node6" class="node"><title>UsertestsController</title>
<path fill="none" stroke="black" d="M83.6956,32.3315C83.6956,32.3315 184.565,32.3315 184.565,32.3315 190.565,32.3315 196.565,26.3315 196.565,20.3315 196.565,20.3315 196.565,-255.668 196.565,-255.668 196.565,-261.668 190.565,-267.668 184.565,-267.668 184.565,-267.668 83.6956,-267.668 83.6956,-267.668 77.6956,-267.668 71.6956,-261.668 71.6956,-255.668 71.6956,-255.668 71.6956,20.3315 71.6956,20.3315 71.6956,26.3315 77.6956,32.3315 83.6956,32.3315"/>
<text text-anchor="middle" x="134.13" y="-252.468" font-family="Times,serif" font-size="14.00">UsertestsController</text>
<polyline fill="none" stroke="black" points="71.6956,-245.668 196.565,-245.668 "/>
<text text-anchor="start" x="79.6956" y="-230.468" font-family="Times,serif" font-size="14.00">check_cookie</text>
<text text-anchor="start" x="79.6956" y="-216.468" font-family="Times,serif" font-size="14.00">create</text>
<text text-anchor="start" x="79.6956" y="-202.468" font-family="Times,serif" font-size="14.00">destroy</text>
<text text-anchor="start" x="79.6956" y="-188.468" font-family="Times,serif" font-size="14.00">edit</text>
<text text-anchor="start" x="79.6956" y="-174.468" font-family="Times,serif" font-size="14.00">finished</text>
<text text-anchor="start" x="79.6956" y="-160.468" font-family="Times,serif" font-size="14.00">index</text>
<text text-anchor="start" x="79.6956" y="-146.468" font-family="Times,serif" font-size="14.00">new</text>
<text text-anchor="start" x="79.6956" y="-132.468" font-family="Times,serif" font-size="14.00">publish</text>
<text text-anchor="start" x="79.6956" y="-118.468" font-family="Times,serif" font-size="14.00">share</text>
<text text-anchor="start" x="79.6956" y="-104.468" font-family="Times,serif" font-size="14.00">show</text>
<text text-anchor="start" x="79.6956" y="-90.4685" font-family="Times,serif" font-size="14.00">update</text>
<polyline fill="none" stroke="black" points="71.6956,-83.6685 196.565,-83.6685 "/>
<polyline fill="none" stroke="black" points="71.6956,-59.6685 196.565,-59.6685 "/>
<text text-anchor="start" x="79.6956" y="-44.4685" font-family="Times,serif" font-size="14.00">_layout</text>
<text text-anchor="start" x="79.6956" y="-30.4685" font-family="Times,serif" font-size="14.00">get_methodname</text>
<text text-anchor="start" x="79.6956" y="-16.4685" font-family="Times,serif" font-size="14.00">set_method_id</text>
<text text-anchor="start" x="79.6956" y="-2.46846" font-family="Times,serif" font-size="14.00">set_test</text>
<text text-anchor="start" x="79.6956" y="11.5315" font-family="Times,serif" font-size="14.00">set_usertest_id</text>
<text text-anchor="start" x="79.6956" y="25.5315" font-family="Times,serif" font-size="14.00">test_params</text>
</g>
<!-- ApplicationController&#45;&gt;UsertestsController -->
<g id="edge4" class="edge"><title>ApplicationController&#45;&gt;UsertestsController</title>
<path fill="none" stroke="black" d="M21.6073,21.4827C36.7045,2.81283 54.536,-19.2385 71.4997,-40.2166"/>
</g>
</g>
</svg>
