<?xml version="1.0" encoding="UTF-8" standalone="no"?>
<!DOCTYPE svg PUBLIC "-//W3C//DTD SVG 1.1//EN"
 "http://www.w3.org/Graphics/SVG/1.1/DTD/svg11.dtd">
<!-- Generated by graphviz version 2.38.0 (20140413.2041)
 -->
<!-- Title: models_diagram Pages: 1 -->
<svg width="434pt" height="297pt"
 viewBox="0.00 0.00 433.83 297.00" xmlns="http://www.w3.org/2000/svg" xmlns:xlink="http://www.w3.org/1999/xlink">
<g id="graph0" class="graph" transform="scale(1 1) rotate(0) translate(4 293)">
<title>models_diagram</title>
<polygon fill="white" stroke="none" points="-4,4 -4,-293 429.828,-293 429.828,4 -4,4"/>
<!-- _diagram_info -->
<g id="node1" class="node"><title>_diagram_info</title>
<text text-anchor="start" x="8" y="-274.6" font-family="Times,serif" font-size="13.00">Models diagram</text>
<text text-anchor="start" x="8" y="-261.6" font-family="Times,serif" font-size="13.00">Date: Jun 16 2014 &#45; 13:21</text>
<text text-anchor="start" x="8" y="-248.6" font-family="Times,serif" font-size="13.00">Migration version: 20140616072417</text>
<text text-anchor="start" x="8" y="-235.6" font-family="Times,serif" font-size="13.00">Generated by RailRoady 1.1.1</text>
<text text-anchor="start" x="8" y="-222.6" font-family="Times,serif" font-size="13.00">http://railroady.prestonlee.com</text>
</g>
<!-- Result -->
<g id="node2" class="node"><title>Result</title>
<ellipse fill="none" stroke="black" cx="251.688" cy="-18" rx="32.9168" ry="18"/>
<text text-anchor="middle" x="251.688" y="-13.8" font-family="Times,serif" font-size="14.00">Result</text>
</g>
<!-- Testperson -->
<g id="node3" class="node"><title>Testperson</title>
<ellipse fill="none" stroke="black" cx="251.688" cy="-90" rx="48.0844" ry="18"/>
<text text-anchor="middle" x="251.688" y="-85.8" font-family="Times,serif" font-size="14.00">Testperson</text>
</g>
<!-- Testperson&#45;&gt;Result -->
<g id="edge2" class="edge"><title>Testperson&#45;&gt;Result</title>
<path fill="none" stroke="#b598a9" d="M251.688,-63.6398C251.688,-57.348 251.688,-50.6053 251.688,-44.3156"/>
<ellipse fill="none" stroke="#b598a9" cx="251.688" cy="-67.6966" rx="4" ry="4"/>
<ellipse fill="#b598a9" stroke="#b598a9" cx="251.688" cy="-40.1043" rx="4" ry="4"/>
</g>
<!-- Upload -->
<g id="node4" class="node"><title>Upload</title>
<ellipse fill="none" stroke="black" cx="389.688" cy="-18" rx="36.2818" ry="18"/>
<text text-anchor="middle" x="389.688" y="-13.8" font-family="Times,serif" font-size="14.00">Upload</text>
</g>
<!-- User -->
<g id="node5" class="node"><title>User</title>
<ellipse fill="none" stroke="black" cx="306.688" cy="-162" rx="27" ry="18"/>
<text text-anchor="middle" x="306.688" y="-157.8" font-family="Times,serif" font-size="14.00">User</text>
</g>
<!-- Usertest -->
<g id="node6" class="node"><title>Usertest</title>
<ellipse fill="none" stroke="black" cx="356.688" cy="-90" rx="39.1713" ry="18"/>
<text text-anchor="middle" x="356.688" y="-85.8" font-family="Times,serif" font-size="14.00">Usertest</text>
</g>
<!-- User&#45;&gt;Usertest -->
<g id="edge5" class="edge"><title>User&#45;&gt;Usertest</title>
<path fill="none" stroke="#dd456c" d="M322.577,-138.755C327.787,-131.461 333.609,-123.311 338.947,-115.837"/>
<ellipse fill="none" stroke="#dd456c" cx="320.109" cy="-142.21" rx="4.00002" ry="4.00002"/>
<polygon fill="#dd456c" stroke="#dd456c" points="339.113,-115.605 348.587,-110.083 342.019,-111.536 344.925,-107.467 344.925,-107.467 344.925,-107.467 342.019,-111.536 341.264,-104.852 339.113,-115.605 339.113,-115.605"/>
</g>
<!-- Usertest&#45;&gt;Result -->
<g id="edge8" class="edge"><title>Usertest&#45;&gt;Result</title>
<path fill="none" stroke="#95c334" d="M328.597,-70.2731C313.638,-60.3005 295.278,-48.0605 280.249,-38.0409"/>
<ellipse fill="none" stroke="#95c334" cx="332.111" cy="-72.6156" rx="4.00002" ry="4.00002"/>
<polygon fill="#95c334" stroke="#95c334" points="280.156,-37.979 274.332,-28.6877 275.996,-35.2055 271.836,-32.432 271.836,-32.432 271.836,-32.432 275.996,-35.2055 269.34,-36.1762 280.156,-37.979 280.156,-37.979"/>
</g>
<!-- Usertest&#45;&gt;Upload -->
<g id="edge7" class="edge"><title>Usertest&#45;&gt;Upload</title>
<path fill="none" stroke="#98194d" d="M368.137,-64.7144C371.16,-58.3016 374.433,-51.3577 377.494,-44.8648"/>
<ellipse fill="none" stroke="#98194d" cx="366.382" cy="-68.4368" rx="4.00002" ry="4.00002"/>
<polygon fill="#98194d" stroke="#98194d" points="377.509,-44.8343 385.843,-37.7079 379.641,-40.3116 381.773,-35.789 381.773,-35.789 381.773,-35.789 379.641,-40.3116 377.703,-33.8701 377.509,-44.8343 377.509,-44.8343"/>
</g>
<!-- ActiveRecord::Base -->
<g id="node7" class="node"><title>ActiveRecord::Base</title>
<ellipse fill="none" stroke="black" cx="306.688" cy="-252.5" rx="81.1422" ry="18"/>
<text text-anchor="middle" x="306.688" y="-248.3" font-family="Times,serif" font-size="14.00">ActiveRecord::Base</text>
</g>
<!-- ActiveRecord::Base&#45;&gt;Result -->
<g id="edge1" class="edge"><title>ActiveRecord::Base&#45;&gt;Result</title>
<path fill="none" stroke="black" d="M287.38,-234.881C260.516,-210.337 213.092,-161.492 194.688,-108 189.482,-92.8704 188.297,-86.6684 194.688,-72 202.028,-55.1522 217.656,-41.2472 230.695,-31.9131"/>
</g>
<!-- ActiveRecord::Base&#45;&gt;Testperson -->
<g id="edge3" class="edge"><title>ActiveRecord::Base&#45;&gt;Testperson</title>
<path fill="none" stroke="black" d="M296.518,-234.42C288.481,-220.268 277.516,-199.402 270.688,-180 262.139,-155.707 256.773,-126.268 254.004,-108.085"/>
</g>
<!-- ActiveRecord::Base&#45;&gt;Upload -->
<g id="edge4" class="edge"><title>ActiveRecord::Base&#45;&gt;Upload</title>
<path fill="none" stroke="black" d="M323.582,-234.889C347.505,-209.982 389.98,-160.274 404.688,-108 411.605,-83.4137 403.633,-54.055 396.927,-35.9687"/>
</g>
<!-- ActiveRecord::Base&#45;&gt;User -->
<g id="edge6" class="edge"><title>ActiveRecord::Base&#45;&gt;User</title>
<path fill="none" stroke="black" d="M306.688,-234.436C306.688,-218.765 306.688,-195.666 306.688,-180.011"/>
</g>
<!-- ActiveRecord::Base&#45;&gt;Usertest -->
<g id="edge9" class="edge"><title>ActiveRecord::Base&#45;&gt;Usertest</title>
<path fill="none" stroke="black" d="M317.14,-234.516C325.341,-220.418 336.389,-199.581 342.688,-180 350.495,-155.729 354.036,-126.284 355.578,-108.094"/>
</g>
</g>
</svg>
