<?xml version="1.0" encoding="UTF-8" standalone="no"?>
<!DOCTYPE svg PUBLIC "-//W3C//DTD SVG 1.1//EN"
 "http://www.w3.org/Graphics/SVG/1.1/DTD/svg11.dtd">
<!-- Generated by graphviz version 2.38.0 (20140413.2041)
 -->
<!-- Title: models_diagram Pages: 1 -->
<svg width="518pt" height="814pt"
 viewBox="0.00 0.00 518.06 814.00" xmlns="http://www.w3.org/2000/svg" xmlns:xlink="http://www.w3.org/1999/xlink">
<g id="graph0" class="graph" transform="scale(1 1) rotate(0) translate(4 810)">
<title>models_diagram</title>
<polygon fill="white" stroke="none" points="-4,4 -4,-810 514.063,-810 514.063,4 -4,4"/>
<!-- _diagram_info -->
<g id="node1" class="node"><title>_diagram_info</title>
<text text-anchor="start" x="8" y="-791.6" font-family="Times,serif" font-size="13.00">Models diagram</text>
<text text-anchor="start" x="8" y="-778.6" font-family="Times,serif" font-size="13.00">Date: Jun 16 2014 &#45; 13:21</text>
<text text-anchor="start" x="8" y="-765.6" font-family="Times,serif" font-size="13.00">Migration version: 20140616072417</text>
<text text-anchor="start" x="8" y="-752.6" font-family="Times,serif" font-size="13.00">Generated by RailRoady 1.1.1</text>
<text text-anchor="start" x="8" y="-739.6" font-family="Times,serif" font-size="13.00">http://railroady.prestonlee.com</text>
</g>
<!-- Result -->
<g id="node2" class="node"><title>Result</title>
<path fill="none" stroke="black" d="M172.231,-0.5C172.231,-0.5 285.145,-0.5 285.145,-0.5 291.145,-0.5 297.145,-6.5 297.145,-12.5 297.145,-12.5 297.145,-102.5 297.145,-102.5 297.145,-108.5 291.145,-114.5 285.145,-114.5 285.145,-114.5 172.231,-114.5 172.231,-114.5 166.231,-114.5 160.231,-108.5 160.231,-102.5 160.231,-102.5 160.231,-12.5 160.231,-12.5 160.231,-6.5 166.231,-0.5 172.231,-0.5"/>
<text text-anchor="middle" x="228.688" y="-99.3" font-family="Times,serif" font-size="14.00">Result</text>
<polyline fill="none" stroke="black" points="160.231,-92.5 297.145,-92.5 "/>
<text text-anchor="start" x="168.231" y="-77.3" font-family="Times,serif" font-size="14.00">id :integer</text>
<text text-anchor="start" x="168.231" y="-63.3" font-family="Times,serif" font-size="14.00">usertest_id :integer</text>
<text text-anchor="start" x="168.231" y="-49.3" font-family="Times,serif" font-size="14.00">testperson_id :integer</text>
<text text-anchor="start" x="168.231" y="-35.3" font-family="Times,serif" font-size="14.00">created_at :datetime</text>
<text text-anchor="start" x="168.231" y="-21.3" font-family="Times,serif" font-size="14.00">updated_at :datetime</text>
<text text-anchor="start" x="168.231" y="-7.3" font-family="Times,serif" font-size="14.00">result :hstore</text>
</g>
<!-- Testperson -->
<g id="node3" class="node"><title>Testperson</title>
<path fill="none" stroke="black" d="M174.182,-165.5C174.182,-165.5 283.193,-165.5 283.193,-165.5 289.193,-165.5 295.193,-171.5 295.193,-177.5 295.193,-177.5 295.193,-393.5 295.193,-393.5 295.193,-399.5 289.193,-405.5 283.193,-405.5 283.193,-405.5 174.182,-405.5 174.182,-405.5 168.182,-405.5 162.182,-399.5 162.182,-393.5 162.182,-393.5 162.182,-177.5 162.182,-177.5 162.182,-171.5 168.182,-165.5 174.182,-165.5"/>
<text text-anchor="middle" x="228.688" y="-390.3" font-family="Times,serif" font-size="14.00">Testperson</text>
<polyline fill="none" stroke="black" points="162.182,-383.5 295.193,-383.5 "/>
<text text-anchor="start" x="170.182" y="-368.3" font-family="Times,serif" font-size="14.00">id :integer</text>
<text text-anchor="start" x="170.182" y="-354.3" font-family="Times,serif" font-size="14.00">age :string</text>
<text text-anchor="start" x="170.182" y="-340.3" font-family="Times,serif" font-size="14.00">name :string</text>
<text text-anchor="start" x="170.182" y="-326.3" font-family="Times,serif" font-size="14.00">email :string</text>
<text text-anchor="start" x="170.182" y="-312.3" font-family="Times,serif" font-size="14.00">browser :string</text>
<text text-anchor="start" x="170.182" y="-298.3" font-family="Times,serif" font-size="14.00">ip :string</text>
<text text-anchor="start" x="170.182" y="-284.3" font-family="Times,serif" font-size="14.00">os :string</text>
<text text-anchor="start" x="170.182" y="-270.3" font-family="Times,serif" font-size="14.00">gender :boolean</text>
<text text-anchor="start" x="170.182" y="-256.3" font-family="Times,serif" font-size="14.00">start_time :datetime</text>
<text text-anchor="start" x="170.182" y="-242.3" font-family="Times,serif" font-size="14.00">end_time :datetime</text>
<text text-anchor="start" x="170.182" y="-228.3" font-family="Times,serif" font-size="14.00">created_at :datetime</text>
<text text-anchor="start" x="170.182" y="-214.3" font-family="Times,serif" font-size="14.00">updated_at :datetime</text>
<text text-anchor="start" x="170.182" y="-200.3" font-family="Times,serif" font-size="14.00">usertest_id :integer</text>
<text text-anchor="start" x="170.182" y="-186.3" font-family="Times,serif" font-size="14.00">width :integer</text>
<text text-anchor="start" x="170.182" y="-172.3" font-family="Times,serif" font-size="14.00">height :integer</text>
</g>
<!-- Testperson&#45;&gt;Result -->
<g id="edge2" class="edge"><title>Testperson&#45;&gt;Result</title>
<path fill="none" stroke="#69b0d4" d="M228.688,-156.978C228.688,-145.206 228.688,-133.647 228.688,-122.825"/>
<ellipse fill="none" stroke="#69b0d4" cx="228.688" cy="-161.213" rx="4" ry="4"/>
<ellipse fill="#69b0d4" stroke="#69b0d4" cx="228.688" cy="-118.702" rx="4" ry="4"/>
</g>
<!-- Upload -->
<g id="node4" class="node"><title>Upload</title>
<path fill="none" stroke="black" d="M373.182,-7.5C373.182,-7.5 482.193,-7.5 482.193,-7.5 488.193,-7.5 494.193,-13.5 494.193,-19.5 494.193,-19.5 494.193,-95.5 494.193,-95.5 494.193,-101.5 488.193,-107.5 482.193,-107.5 482.193,-107.5 373.182,-107.5 373.182,-107.5 367.182,-107.5 361.182,-101.5 361.182,-95.5 361.182,-95.5 361.182,-19.5 361.182,-19.5 361.182,-13.5 367.182,-7.5 373.182,-7.5"/>
<text text-anchor="middle" x="427.688" y="-92.3" font-family="Times,serif" font-size="14.00">Upload</text>
<polyline fill="none" stroke="black" points="361.182,-85.5 494.193,-85.5 "/>
<text text-anchor="start" x="369.182" y="-70.3" font-family="Times,serif" font-size="14.00">id :integer</text>
<text text-anchor="start" x="369.182" y="-56.3" font-family="Times,serif" font-size="14.00">created_at :datetime</text>
<text text-anchor="start" x="369.182" y="-42.3" font-family="Times,serif" font-size="14.00">updated_at :datetime</text>
<text text-anchor="start" x="369.182" y="-28.3" font-family="Times,serif" font-size="14.00">usertest_id :integer</text>
<text text-anchor="start" x="369.182" y="-14.3" font-family="Times,serif" font-size="14.00">photo :string</text>
</g>
<!-- User -->
<g id="node5" class="node"><title>User</title>
<path fill="none" stroke="black" d="M216.41,-456.5C216.41,-456.5 396.966,-456.5 396.966,-456.5 402.966,-456.5 408.966,-462.5 408.966,-468.5 408.966,-468.5 408.966,-684.5 408.966,-684.5 408.966,-690.5 402.966,-696.5 396.966,-696.5 396.966,-696.5 216.41,-696.5 216.41,-696.5 210.41,-696.5 204.41,-690.5 204.41,-684.5 204.41,-684.5 204.41,-468.5 204.41,-468.5 204.41,-462.5 210.41,-456.5 216.41,-456.5"/>
<text text-anchor="middle" x="306.688" y="-681.3" font-family="Times,serif" font-size="14.00">User</text>
<polyline fill="none" stroke="black" points="204.41,-674.5 408.966,-674.5 "/>
<text text-anchor="start" x="212.41" y="-659.3" font-family="Times,serif" font-size="14.00">id :integer</text>
<text text-anchor="start" x="212.41" y="-645.3" font-family="Times,serif" font-size="14.00">email :string</text>
<text text-anchor="start" x="212.41" y="-631.3" font-family="Times,serif" font-size="14.00">password :string</text>
<text text-anchor="start" x="212.41" y="-617.3" font-family="Times,serif" font-size="14.00">password_salt :string</text>
<text text-anchor="start" x="212.41" y="-603.3" font-family="Times,serif" font-size="14.00">created_at :datetime</text>
<text text-anchor="start" x="212.41" y="-589.3" font-family="Times,serif" font-size="14.00">updated_at :datetime</text>
<text text-anchor="start" x="212.41" y="-575.3" font-family="Times,serif" font-size="14.00">encrypted_password :string</text>
<text text-anchor="start" x="212.41" y="-561.3" font-family="Times,serif" font-size="14.00">reset_password_token :string</text>
<text text-anchor="start" x="212.41" y="-547.3" font-family="Times,serif" font-size="14.00">reset_password_sent_at :datetime</text>
<text text-anchor="start" x="212.41" y="-533.3" font-family="Times,serif" font-size="14.00">remember_created_at :datetime</text>
<text text-anchor="start" x="212.41" y="-519.3" font-family="Times,serif" font-size="14.00">sign_in_count :integer</text>
<text text-anchor="start" x="212.41" y="-505.3" font-family="Times,serif" font-size="14.00">current_sign_in_at :datetime</text>
<text text-anchor="start" x="212.41" y="-491.3" font-family="Times,serif" font-size="14.00">last_sign_in_at :datetime</text>
<text text-anchor="start" x="212.41" y="-477.3" font-family="Times,serif" font-size="14.00">current_sign_in_ip :string</text>
<text text-anchor="start" x="212.41" y="-463.3" font-family="Times,serif" font-size="14.00">last_sign_in_ip :string</text>
</g>
<!-- Usertest -->
<g id="node6" class="node"><title>Usertest</title>
<path fill="none" stroke="black" d="M325.182,-151.5C325.182,-151.5 434.193,-151.5 434.193,-151.5 440.193,-151.5 446.193,-157.5 446.193,-163.5 446.193,-163.5 446.193,-407.5 446.193,-407.5 446.193,-413.5 440.193,-419.5 434.193,-419.5 434.193,-419.5 325.182,-419.5 325.182,-419.5 319.182,-419.5 313.182,-413.5 313.182,-407.5 313.182,-407.5 313.182,-163.5 313.182,-163.5 313.182,-157.5 319.182,-151.5 325.182,-151.5"/>
<text text-anchor="middle" x="379.688" y="-404.3" font-family="Times,serif" font-size="14.00">Usertest</text>
<polyline fill="none" stroke="black" points="313.182,-397.5 446.193,-397.5 "/>
<text text-anchor="start" x="321.182" y="-382.3" font-family="Times,serif" font-size="14.00">id :integer</text>
<text text-anchor="start" x="321.182" y="-368.3" font-family="Times,serif" font-size="14.00">user_id :integer</text>
<text text-anchor="start" x="321.182" y="-354.3" font-family="Times,serif" font-size="14.00">title :string</text>
<text text-anchor="start" x="321.182" y="-340.3" font-family="Times,serif" font-size="14.00">introtext :text</text>
<text text-anchor="start" x="321.182" y="-326.3" font-family="Times,serif" font-size="14.00">method_id :integer</text>
<text text-anchor="start" x="321.182" y="-312.3" font-family="Times,serif" font-size="14.00">end_date :datetime</text>
<text text-anchor="start" x="321.182" y="-298.3" font-family="Times,serif" font-size="14.00">start_date :datetime</text>
<text text-anchor="start" x="321.182" y="-284.3" font-family="Times,serif" font-size="14.00">status :boolean</text>
<text text-anchor="start" x="321.182" y="-270.3" font-family="Times,serif" font-size="14.00">created_at :datetime</text>
<text text-anchor="start" x="321.182" y="-256.3" font-family="Times,serif" font-size="14.00">updated_at :datetime</text>
<text text-anchor="start" x="321.182" y="-242.3" font-family="Times,serif" font-size="14.00">outrotext :text</text>
<text text-anchor="start" x="321.182" y="-228.3" font-family="Times,serif" font-size="14.00">product :string</text>
<text text-anchor="start" x="321.182" y="-214.3" font-family="Times,serif" font-size="14.00">url :string</text>
<text text-anchor="start" x="321.182" y="-200.3" font-family="Times,serif" font-size="14.00">glyphoption1 :string</text>
<text text-anchor="start" x="321.182" y="-186.3" font-family="Times,serif" font-size="14.00">glyphoption2 :string</text>
<text text-anchor="start" x="321.182" y="-172.3" font-family="Times,serif" font-size="14.00">glyphoption3 :string</text>
<text text-anchor="start" x="321.182" y="-158.3" font-family="Times,serif" font-size="14.00">test_time :integer</text>
</g>
<!-- User&#45;&gt;Usertest -->
<g id="edge5" class="edge"><title>User&#45;&gt;Usertest</title>
<path fill="none" stroke="#97d649" d="M338.819,-448.294C340.402,-442.03 341.995,-435.721 343.588,-429.417"/>
<ellipse fill="none" stroke="#97d649" cx="337.781" cy="-452.406" rx="4.00001" ry="4.00001"/>
<polygon fill="#97d649" stroke="#97d649" points="343.638,-429.217 350.45,-420.623 344.863,-424.369 346.087,-419.521 346.087,-419.521 346.087,-419.521 344.863,-424.369 341.724,-418.419 343.638,-429.217 343.638,-429.217"/>
</g>
<!-- Usertest&#45;&gt;Result -->
<g id="edge8" class="edge"><title>Usertest&#45;&gt;Result</title>
<path fill="none" stroke="#77d0f5" d="M308.584,-156.778C307.288,-154.83 305.989,-152.903 304.688,-151 298.245,-141.579 291.069,-131.943 283.771,-122.619"/>
<ellipse fill="none" stroke="#77d0f5" cx="310.781" cy="-160.128" rx="4.00002" ry="4.00002"/>
<polygon fill="#77d0f5" stroke="#77d0f5" points="283.558,-122.351 280.867,-111.72 280.45,-118.434 277.342,-114.518 277.342,-114.518 277.342,-114.518 280.45,-118.434 273.817,-117.315 283.558,-122.351 283.558,-122.351"/>
</g>
<!-- Usertest&#45;&gt;Upload -->
<g id="edge7" class="edge"><title>Usertest&#45;&gt;Upload</title>
<path fill="none" stroke="#264f8d" d="M409.645,-143.449C411.56,-134.437 413.42,-125.679 415.173,-117.424"/>
<ellipse fill="none" stroke="#264f8d" cx="408.788" cy="-147.488" rx="4.00001" ry="4.00001"/>
<polygon fill="#264f8d" stroke="#264f8d" points="415.177,-117.404 421.656,-108.557 416.216,-112.513 417.255,-107.622 417.255,-107.622 417.255,-107.622 416.216,-112.513 412.853,-106.687 415.177,-117.404 415.177,-117.404"/>
</g>
<!-- ActiveRecord::Base -->
<g id="node7" class="node"><title>ActiveRecord::Base</title>
<ellipse fill="none" stroke="black" cx="306.688" cy="-769.5" rx="81.1422" ry="18"/>
<text text-anchor="middle" x="306.688" y="-765.3" font-family="Times,serif" font-size="14.00">ActiveRecord::Base</text>
</g>
<!-- ActiveRecord::Base&#45;&gt;Result -->
<g id="edge1" class="edge"><title>ActiveRecord::Base&#45;&gt;Result</title>
<path fill="none" stroke="black" d="M270.889,-753.286C229.801,-735.472 167.201,-707.114 160.688,-697 29.2866,-492.957 70.8627,-379.483 152.688,-151 157.278,-138.183 164.494,-125.87 172.693,-114.641"/>
</g>
<!-- ActiveRecord::Base&#45;&gt;Testperson -->
<g id="edge3" class="edge"><title>ActiveRecord::Base&#45;&gt;Testperson</title>
<path fill="none" stroke="black" d="M265.666,-753.888C240.562,-742.566 210.504,-724.168 195.688,-697 147.164,-608.024 162.494,-491.724 185.842,-405.64"/>
</g>
<!-- ActiveRecord::Base&#45;&gt;Upload -->
<g id="edge4" class="edge"><title>ActiveRecord::Base&#45;&gt;Upload</title>
<path fill="none" stroke="black" d="M359.819,-755.834C390.764,-745.475 427.383,-727.416 446.688,-697 566.288,-508.565 486.103,-221.804 446.334,-107.765"/>
</g>
<!-- ActiveRecord::Base&#45;&gt;User -->
<g id="edge6" class="edge"><title>ActiveRecord::Base&#45;&gt;User</title>
<path fill="none" stroke="black" d="M306.688,-751.213C306.688,-737.898 306.688,-718.192 306.688,-696.783"/>
</g>
<!-- ActiveRecord::Base&#45;&gt;Usertest -->
<g id="edge9" class="edge"><title>ActiveRecord::Base&#45;&gt;Usertest</title>
<path fill="none" stroke="black" d="M347.709,-753.888C372.813,-742.566 402.871,-724.168 417.688,-697 463.607,-612.801 451.043,-504.276 428.639,-419.961"/>
</g>
</g>
</svg>
